<mxfile host="app.diagrams.net" modified="2023-10-27T08:39:29.358Z" agent="Mozilla/5.0 (Windows NT 10.0; Win64; x64) AppleWebKit/537.36 (KHTML, like Gecko) Chrome/118.0.0.0 Safari/537.36" etag="1vcr9yNYB30Hi3YhsJ9F" version="22.0.8" type="device">
  <diagram name="PÃ¡gina-1" id="VuSWSpo61Ne59JDOaEKN">
    <mxGraphModel dx="768" dy="772" grid="0" gridSize="10" guides="1" tooltips="1" connect="1" arrows="1" fold="1" page="0" pageScale="1" pageWidth="827" pageHeight="1169" math="0" shadow="0">
      <root>
        <mxCell id="0" />
        <mxCell id="1" parent="0" />
        <mxCell id="8L7mYQctwdsUqbmp2qaU-1" value="" style="whiteSpace=wrap;html=1;aspect=fixed;" vertex="1" parent="1">
          <mxGeometry x="240" y="240" width="240" height="240" as="geometry" />
        </mxCell>
        <mxCell id="8L7mYQctwdsUqbmp2qaU-2" value="" style="endArrow=none;html=1;rounded=0;entryX=0.25;entryY=0;entryDx=0;entryDy=0;exitX=0.25;exitY=1;exitDx=0;exitDy=0;" edge="1" parent="1" source="8L7mYQctwdsUqbmp2qaU-1" target="8L7mYQctwdsUqbmp2qaU-1">
          <mxGeometry width="50" height="50" relative="1" as="geometry">
            <mxPoint x="370" y="420" as="sourcePoint" />
            <mxPoint x="420" y="370" as="targetPoint" />
          </mxGeometry>
        </mxCell>
        <mxCell id="8L7mYQctwdsUqbmp2qaU-3" value="" style="endArrow=none;html=1;rounded=0;exitX=0;exitY=0.25;exitDx=0;exitDy=0;entryX=1;entryY=0.25;entryDx=0;entryDy=0;" edge="1" parent="1" source="8L7mYQctwdsUqbmp2qaU-1" target="8L7mYQctwdsUqbmp2qaU-1">
          <mxGeometry width="50" height="50" relative="1" as="geometry">
            <mxPoint x="370" y="420" as="sourcePoint" />
            <mxPoint x="420" y="370" as="targetPoint" />
          </mxGeometry>
        </mxCell>
        <mxCell id="8L7mYQctwdsUqbmp2qaU-4" value="" style="endArrow=none;html=1;rounded=0;exitX=0;exitY=0.75;exitDx=0;exitDy=0;entryX=1;entryY=0.75;entryDx=0;entryDy=0;" edge="1" parent="1">
          <mxGeometry width="50" height="50" relative="1" as="geometry">
            <mxPoint x="240" y="431" as="sourcePoint" />
            <mxPoint x="480" y="431" as="targetPoint" />
          </mxGeometry>
        </mxCell>
        <mxCell id="8L7mYQctwdsUqbmp2qaU-5" value="" style="endArrow=none;html=1;rounded=0;exitX=0;exitY=0.5;exitDx=0;exitDy=0;entryX=1;entryY=0.5;entryDx=0;entryDy=0;" edge="1" parent="1">
          <mxGeometry width="50" height="50" relative="1" as="geometry">
            <mxPoint x="240" y="349" as="sourcePoint" />
            <mxPoint x="480" y="349" as="targetPoint" />
          </mxGeometry>
        </mxCell>
        <mxCell id="8L7mYQctwdsUqbmp2qaU-6" value="" style="rounded=1;whiteSpace=wrap;html=1;fillColor=#647687;strokeColor=#314354;fontColor=#ffffff;arcSize=0;" vertex="1" parent="1">
          <mxGeometry x="240" y="240" width="60" height="60" as="geometry" />
        </mxCell>
        <mxCell id="8L7mYQctwdsUqbmp2qaU-7" value="" style="rounded=1;whiteSpace=wrap;html=1;fillColor=#647687;strokeColor=#314354;fontColor=#ffffff;arcSize=20;" vertex="1" parent="1">
          <mxGeometry x="290" y="340" width="20" height="100" as="geometry" />
        </mxCell>
        <mxCell id="8L7mYQctwdsUqbmp2qaU-9" value="" style="shape=image;html=1;verticalAlign=top;verticalLabelPosition=bottom;labelBackgroundColor=#ffffff;imageAspect=0;aspect=fixed;image=https://cdn1.iconfinder.com/data/icons/science-technology-outline-24-px/24/Android_android_robot_operative_system_robot_technology-128.png" vertex="1" parent="1">
          <mxGeometry x="442" y="251" width="38" height="38" as="geometry" />
        </mxCell>
        <mxCell id="8L7mYQctwdsUqbmp2qaU-10" value="BTA" style="text;html=1;strokeColor=none;fillColor=none;align=center;verticalAlign=middle;whiteSpace=wrap;rounded=0;" vertex="1" parent="1">
          <mxGeometry x="300" y="255" width="60" height="30" as="geometry" />
        </mxCell>
        <mxCell id="8L7mYQctwdsUqbmp2qaU-11" value="PUA" style="text;html=1;strokeColor=none;fillColor=none;align=center;verticalAlign=middle;whiteSpace=wrap;rounded=0;" vertex="1" parent="1">
          <mxGeometry x="240" y="310" width="60" height="30" as="geometry" />
        </mxCell>
        <mxCell id="8L7mYQctwdsUqbmp2qaU-12" value="AUA" style="text;html=1;strokeColor=none;fillColor=none;align=center;verticalAlign=middle;whiteSpace=wrap;rounded=0;" vertex="1" parent="1">
          <mxGeometry x="360" y="310" width="60" height="30" as="geometry" />
        </mxCell>
        <mxCell id="8L7mYQctwdsUqbmp2qaU-13" value="PMA" style="text;html=1;strokeColor=none;fillColor=none;align=center;verticalAlign=middle;whiteSpace=wrap;rounded=0;" vertex="1" parent="1">
          <mxGeometry x="240" y="360" width="60" height="30" as="geometry" />
        </mxCell>
        <mxCell id="8L7mYQctwdsUqbmp2qaU-14" value="AMA" style="text;html=1;strokeColor=none;fillColor=none;align=center;verticalAlign=middle;whiteSpace=wrap;rounded=0;" vertex="1" parent="1">
          <mxGeometry x="360" y="375" width="60" height="30" as="geometry" />
        </mxCell>
        <mxCell id="8L7mYQctwdsUqbmp2qaU-15" value="PLA" style="text;html=1;strokeColor=none;fillColor=none;align=center;verticalAlign=middle;whiteSpace=wrap;rounded=0;" vertex="1" parent="1">
          <mxGeometry x="240" y="440" width="60" height="30" as="geometry" />
        </mxCell>
        <mxCell id="8L7mYQctwdsUqbmp2qaU-16" value="ALA" style="text;html=1;strokeColor=none;fillColor=none;align=center;verticalAlign=middle;whiteSpace=wrap;rounded=0;" vertex="1" parent="1">
          <mxGeometry x="360" y="440" width="60" height="30" as="geometry" />
        </mxCell>
        <mxCell id="8L7mYQctwdsUqbmp2qaU-17" value="" style="shape=image;html=1;verticalAlign=top;verticalLabelPosition=bottom;labelBackgroundColor=#ffffff;imageAspect=0;aspect=fixed;image=https://cdn1.iconfinder.com/data/icons/electronics-outline-24/24/microwave_oven_electronics_kitchen_appliance_microwave_oven-128.png" vertex="1" parent="1">
          <mxGeometry x="360" y="240" width="38" height="38" as="geometry" />
        </mxCell>
        <mxCell id="8L7mYQctwdsUqbmp2qaU-20" value="" style="rounded=1;whiteSpace=wrap;html=1;fillColor=#f8cecc;strokeColor=#b85450;" vertex="1" parent="1">
          <mxGeometry x="400" y="240" width="40" height="60" as="geometry" />
        </mxCell>
        <mxCell id="8L7mYQctwdsUqbmp2qaU-18" value="" style="shape=image;html=1;verticalAlign=top;verticalLabelPosition=bottom;labelBackgroundColor=#ffffff;imageAspect=0;aspect=fixed;image=https://cdn4.iconfinder.com/data/icons/food-and-equipment-outline/32/dish-128.png" vertex="1" parent="1">
          <mxGeometry x="404.5" y="243.5" width="31" height="31" as="geometry" />
        </mxCell>
        <mxCell id="8L7mYQctwdsUqbmp2qaU-19" value="" style="shape=image;html=1;verticalAlign=top;verticalLabelPosition=bottom;labelBackgroundColor=#ffffff;imageAspect=0;aspect=fixed;image=https://cdn2.iconfinder.com/data/icons/essential-web-2/50/user-person-account-avatar-customer-128.png" vertex="1" parent="1">
          <mxGeometry x="256" y="390" width="28" height="28" as="geometry" />
        </mxCell>
        <mxCell id="8L7mYQctwdsUqbmp2qaU-21" value="" style="whiteSpace=wrap;html=1;aspect=fixed;" vertex="1" parent="1">
          <mxGeometry x="520" y="240" width="240" height="240" as="geometry" />
        </mxCell>
        <mxCell id="8L7mYQctwdsUqbmp2qaU-22" value="" style="endArrow=none;html=1;rounded=0;entryX=0.25;entryY=0;entryDx=0;entryDy=0;exitX=0.25;exitY=1;exitDx=0;exitDy=0;" edge="1" parent="1" source="8L7mYQctwdsUqbmp2qaU-21" target="8L7mYQctwdsUqbmp2qaU-21">
          <mxGeometry width="50" height="50" relative="1" as="geometry">
            <mxPoint x="650" y="420" as="sourcePoint" />
            <mxPoint x="700" y="370" as="targetPoint" />
          </mxGeometry>
        </mxCell>
        <mxCell id="8L7mYQctwdsUqbmp2qaU-23" value="" style="endArrow=none;html=1;rounded=0;exitX=0;exitY=0.25;exitDx=0;exitDy=0;entryX=1;entryY=0.25;entryDx=0;entryDy=0;" edge="1" parent="1" source="8L7mYQctwdsUqbmp2qaU-21" target="8L7mYQctwdsUqbmp2qaU-21">
          <mxGeometry width="50" height="50" relative="1" as="geometry">
            <mxPoint x="650" y="420" as="sourcePoint" />
            <mxPoint x="700" y="370" as="targetPoint" />
          </mxGeometry>
        </mxCell>
        <mxCell id="8L7mYQctwdsUqbmp2qaU-24" value="" style="endArrow=none;html=1;rounded=0;exitX=0;exitY=0.75;exitDx=0;exitDy=0;entryX=1;entryY=0.75;entryDx=0;entryDy=0;" edge="1" parent="1">
          <mxGeometry width="50" height="50" relative="1" as="geometry">
            <mxPoint x="520" y="431" as="sourcePoint" />
            <mxPoint x="760" y="431" as="targetPoint" />
          </mxGeometry>
        </mxCell>
        <mxCell id="8L7mYQctwdsUqbmp2qaU-25" value="" style="endArrow=none;html=1;rounded=0;exitX=0;exitY=0.5;exitDx=0;exitDy=0;entryX=1;entryY=0.5;entryDx=0;entryDy=0;" edge="1" parent="1">
          <mxGeometry width="50" height="50" relative="1" as="geometry">
            <mxPoint x="520" y="349" as="sourcePoint" />
            <mxPoint x="760" y="349" as="targetPoint" />
          </mxGeometry>
        </mxCell>
        <mxCell id="8L7mYQctwdsUqbmp2qaU-26" value="" style="rounded=1;whiteSpace=wrap;html=1;fillColor=#647687;strokeColor=#314354;fontColor=#ffffff;arcSize=0;" vertex="1" parent="1">
          <mxGeometry x="520" y="240" width="60" height="60" as="geometry" />
        </mxCell>
        <mxCell id="8L7mYQctwdsUqbmp2qaU-27" value="" style="rounded=1;whiteSpace=wrap;html=1;fillColor=#647687;strokeColor=#314354;fontColor=#ffffff;arcSize=20;" vertex="1" parent="1">
          <mxGeometry x="570" y="340" width="20" height="100" as="geometry" />
        </mxCell>
        <mxCell id="8L7mYQctwdsUqbmp2qaU-28" value="" style="shape=image;html=1;verticalAlign=top;verticalLabelPosition=bottom;labelBackgroundColor=#ffffff;imageAspect=0;aspect=fixed;image=https://cdn1.iconfinder.com/data/icons/science-technology-outline-24-px/24/Android_android_robot_operative_system_robot_technology-128.png" vertex="1" parent="1">
          <mxGeometry x="722" y="251" width="38" height="38" as="geometry" />
        </mxCell>
        <mxCell id="8L7mYQctwdsUqbmp2qaU-29" value="BTA" style="text;html=1;strokeColor=none;fillColor=none;align=center;verticalAlign=middle;whiteSpace=wrap;rounded=0;" vertex="1" parent="1">
          <mxGeometry x="580" y="255" width="60" height="30" as="geometry" />
        </mxCell>
        <mxCell id="8L7mYQctwdsUqbmp2qaU-30" value="PUA" style="text;html=1;strokeColor=none;fillColor=none;align=center;verticalAlign=middle;whiteSpace=wrap;rounded=0;" vertex="1" parent="1">
          <mxGeometry x="520" y="310" width="60" height="30" as="geometry" />
        </mxCell>
        <mxCell id="8L7mYQctwdsUqbmp2qaU-31" value="AUA" style="text;html=1;strokeColor=none;fillColor=none;align=center;verticalAlign=middle;whiteSpace=wrap;rounded=0;" vertex="1" parent="1">
          <mxGeometry x="640" y="310" width="60" height="30" as="geometry" />
        </mxCell>
        <mxCell id="8L7mYQctwdsUqbmp2qaU-32" value="PMA" style="text;html=1;strokeColor=none;fillColor=none;align=center;verticalAlign=middle;whiteSpace=wrap;rounded=0;" vertex="1" parent="1">
          <mxGeometry x="520" y="360" width="60" height="30" as="geometry" />
        </mxCell>
        <mxCell id="8L7mYQctwdsUqbmp2qaU-33" value="AMA" style="text;html=1;strokeColor=none;fillColor=none;align=center;verticalAlign=middle;whiteSpace=wrap;rounded=0;" vertex="1" parent="1">
          <mxGeometry x="640" y="375" width="60" height="30" as="geometry" />
        </mxCell>
        <mxCell id="8L7mYQctwdsUqbmp2qaU-34" value="PLA" style="text;html=1;strokeColor=none;fillColor=none;align=center;verticalAlign=middle;whiteSpace=wrap;rounded=0;" vertex="1" parent="1">
          <mxGeometry x="520" y="440" width="60" height="30" as="geometry" />
        </mxCell>
        <mxCell id="8L7mYQctwdsUqbmp2qaU-35" value="ALA" style="text;html=1;strokeColor=none;fillColor=none;align=center;verticalAlign=middle;whiteSpace=wrap;rounded=0;" vertex="1" parent="1">
          <mxGeometry x="640" y="440" width="60" height="30" as="geometry" />
        </mxCell>
        <mxCell id="8L7mYQctwdsUqbmp2qaU-36" value="" style="shape=image;html=1;verticalAlign=top;verticalLabelPosition=bottom;labelBackgroundColor=#ffffff;imageAspect=0;aspect=fixed;image=https://cdn1.iconfinder.com/data/icons/electronics-outline-24/24/microwave_oven_electronics_kitchen_appliance_microwave_oven-128.png" vertex="1" parent="1">
          <mxGeometry x="640" y="240" width="38" height="38" as="geometry" />
        </mxCell>
        <mxCell id="8L7mYQctwdsUqbmp2qaU-37" value="" style="rounded=1;whiteSpace=wrap;html=1;fillColor=#f8cecc;strokeColor=#b85450;" vertex="1" parent="1">
          <mxGeometry x="680" y="240" width="40" height="60" as="geometry" />
        </mxCell>
        <mxCell id="8L7mYQctwdsUqbmp2qaU-38" value="" style="shape=image;html=1;verticalAlign=top;verticalLabelPosition=bottom;labelBackgroundColor=#ffffff;imageAspect=0;aspect=fixed;image=https://cdn4.iconfinder.com/data/icons/food-and-equipment-outline/32/dish-128.png" vertex="1" parent="1">
          <mxGeometry x="541" y="385" width="31" height="31" as="geometry" />
        </mxCell>
        <mxCell id="8L7mYQctwdsUqbmp2qaU-39" value="" style="shape=image;html=1;verticalAlign=top;verticalLabelPosition=bottom;labelBackgroundColor=#ffffff;imageAspect=0;aspect=fixed;image=https://cdn2.iconfinder.com/data/icons/essential-web-2/50/user-person-account-avatar-customer-128.png" vertex="1" parent="1">
          <mxGeometry x="520" y="383" width="28" height="28" as="geometry" />
        </mxCell>
        <mxCell id="8L7mYQctwdsUqbmp2qaU-40" value="INITIAL STATE" style="text;html=1;strokeColor=none;fillColor=none;align=center;verticalAlign=middle;whiteSpace=wrap;rounded=0;fontSize=20;fontStyle=1" vertex="1" parent="1">
          <mxGeometry x="282" y="200" width="156" height="30" as="geometry" />
        </mxCell>
        <mxCell id="8L7mYQctwdsUqbmp2qaU-41" value="TARGET STATE" style="text;html=1;strokeColor=none;fillColor=none;align=center;verticalAlign=middle;whiteSpace=wrap;rounded=0;fontSize=20;fontStyle=1" vertex="1" parent="1">
          <mxGeometry x="562" y="200" width="156" height="30" as="geometry" />
        </mxCell>
      </root>
    </mxGraphModel>
  </diagram>
</mxfile>
